PathFileType	4	(X/Y/Z)	s09c0001.trc
DataRate	CameraRate	NumFrames	NumMarkers	Units	OrigDataRate	OrigDataStartFrame	OrigNumFrames
200	200	4	49	mm	200	1500	2000
Frame#	Time	racr			lacr			c7			jug			rlel			rdr			llel			ldr			s2			lic			ric			lasi			rasi			rpsi			lpsi			rgt			lgt			rth1			rth2			rth3			rth4			rlfc			rmfc			rsh1			rsh2			rsh3			rsh4			rlmal			rmmal			rcal			rtoe			rmt5			rmt1			lth1			lth2			lth4			lth3			llfc			lmfc			llmal			lmmal			lcal			lmt1			lmt5			lsh1			lsh2			lsh3			lsh4			ltoe			
		X1	Y1	Z1	X2	Y2	Z2	X3	Y3	Z3	X4	Y4	Z4	X5	Y5	Z5	X6	Y6	Z6	X7	Y7	Z7	X8	Y8	Z8	X9	Y9	Z9	X10	Y10	Z10	X11	Y11	Z11	X12	Y12	Z12	X13	Y13	Z13	X14	Y14	Z14	X15	Y15	Z15	X16	Y16	Z16	X17	Y17	Z17	X18	Y18	Z18	X19	Y19	Z19	X20	Y20	Z20	X21	Y21	Z21	X22	Y22	Z22	X23	Y23	Z23	X24	Y24	Z24	X25	Y25	Z25	X26	Y26	Z26	X27	Y27	Z27	X28	Y28	Z28	X29	Y29	Z29	X30	Y30	Z30	X31	Y31	Z31	X32	Y32	Z32	X33	Y33	Z33	X34	Y34	Z34	X35	Y35	Z35	X36	Y36	Z36	X37	Y37	Z37	X38	Y38	Z38	X39	Y39	Z39	X40	Y40	Z40	X41	Y41	Z41	X42	Y42	Z42	X43	Y43	Z43	X44	Y44	Z44	X45	Y45	Z45	X46	Y46	Z46	X47	Y47	Z47	X48	Y48	Z48	X49	Y49	Z49	
1500	7.5000	278.474304	1353.647339	381.317169	281.444458	1336.658081	-11.973837	226.459839	1402.453491	181.541306	350.930328	1352.051270	180.782379	293.748993	1093.473999	448.284119	359.480560	880.060852	578.530090	273.417999	1052.619019	-48.740086	400.293945	899.044983	-196.632019	210.084900	946.432434	184.070435	349.820526	991.673401	48.244110	337.441010	1003.071899	337.282990	407.893860	955.770752	79.895042	397.226349	966.352112	318.543976	222.097961	978.681946	243.960785	222.888748	974.829407	133.227600	323.104462	847.030640	385.675049	328.042633	837.061035	9.966555	346.755035	716.570251	381.549744	362.703949	631.172974	368.054504	331.236298	548.544495	358.593933	393.315796	629.818115	348.291412	318.037781	451.029083	334.759125	300.849091	431.030212	236.753983	277.422577	361.120850	367.876984	301.811859	274.076569	359.584717	278.937256	189.258270	361.176086	327.484619	276.919678	329.601013	276.775757	86.707085	360.325867	286.148804	93.457382	283.798767	219.157715	32.017750	318.050995	471.914734	86.109711	354.315948	388.180328	49.245926	407.093689	400.983551	39.275101	297.138580	338.537659	710.645813	9.062875	353.919067	629.566895	25.827545	389.418732	627.706604	39.406624	325.659546	543.902710	34.577484	308.032532	449.232605	46.901562	316.838928	429.064697	139.983765	268.514557	84.951157	21.754976	291.168854	96.187370	92.399971	218.696533	26.690653	68.082085	406.278809	43.986874	87.229355	381.431335	33.838802	-18.419500	277.403625	355.113586	17.352133	295.466156	270.354736	21.275642	274.093445	198.258469	14.857043	322.654724	270.759125	50.394672	472.497192	79.158379	36.391582	
1501	7.5050	278.494415	1353.642578	381.299286	281.455627	1336.653198	-11.976160	226.469864	1402.455200	181.561066	350.950134	1352.043701	180.773499	293.762787	1093.454346	448.275970	359.467407	880.048340	578.532837	273.409607	1052.611938	-48.734943	400.286560	899.034973	-196.629440	210.077133	946.427917	184.072266	349.811035	991.669189	48.240582	337.418335	1003.078796	337.298370	407.894287	955.769043	79.875885	397.238159	966.337646	318.548645	222.106857	978.673584	243.945267	222.896118	974.834717	133.230408	323.090393	847.033325	385.681732	328.065643	837.047668	9.982161	346.746979	716.570496	381.555542	362.701752	631.159363	368.077911	331.237671	548.542480	358.610413	393.315338	629.817810	348.277161	318.024384	451.022308	334.761414	300.874634	431.039520	236.771454	277.439392	361.120880	367.885803	301.821808	274.074280	359.576416	278.936707	189.257355	361.186218	327.484375	276.911957	329.590881	276.763245	86.717049	360.319580	286.122925	93.474190	283.787781	219.164536	32.018513	318.063965	471.908417	86.107002	354.329651	388.174866	49.255856	407.087769	400.990967	39.278545	297.132538	338.540863	710.648987	9.076489	353.928986	629.552185	25.847109	389.447296	627.698364	39.437073	325.645966	543.915405	34.564709	308.037842	449.235352	46.932308	316.839600	429.064270	139.985168	268.509918	84.942307	21.763456	291.170013	96.185066	92.416519	218.690933	26.704172	68.089035	406.269501	44.000557	87.217155	381.453583	33.855808	-18.392994	277.403656	355.114166	17.363539	295.482483	270.378723	21.264980	274.132477	198.264404	14.772763	322.638245	270.740295	50.414940	472.482666	79.171661	36.382275	
1502	7.5100	278.488312	1353.653687	381.315216	281.461731	1336.653320	-11.974844	226.502899	1402.459839	181.529694	350.969360	1352.046875	180.783524	293.744812	1093.461426	448.263550	359.459747	880.042236	578.517029	273.399994	1052.619995	-48.719166	400.261810	899.037170	-196.621094	210.109238	946.425232	184.068604	349.833374	991.664795	48.243027	337.389984	1003.090271	337.316498	407.888397	955.755615	79.886772	397.236725	966.347717	318.545807	222.106766	978.681641	243.947113	222.887634	974.843262	133.237137	323.101410	847.026855	385.673615	328.068634	837.053528	9.981005	346.745972	716.567200	381.568512	362.700958	631.163086	368.063171	331.236572	548.534912	358.605133	393.309387	629.805054	348.286194	318.024841	451.037994	334.755249	300.853546	431.050446	236.751450	277.431915	361.120117	367.881592	301.810242	274.084595	359.587585	278.936310	189.266037	361.174469	327.480194	276.911346	329.595398	276.782806	86.693993	360.315765	286.141266	93.459000	283.791534	219.177750	32.007557	318.059845	471.919495	86.103523	354.323547	388.178955	49.259308	407.087860	401.007294	39.272861	297.139923	338.558472	710.646667	9.082878	353.925446	629.547424	25.860233	389.436218	627.687805	39.433334	325.641754	543.922852	34.586227	308.045746	449.231506	46.916039	316.815460	429.059814	139.993057	268.500153	84.951698	21.767496	291.179718	96.191826	92.412971	218.692001	26.716402	68.095993	406.283508	43.992729	87.223297	381.489380	33.832050	-18.404762	277.410309	355.110138	17.363188	295.482666	270.377777	21.265085	274.119720	198.267883	14.831060	322.673248	270.768097	50.375214	472.499664	79.159904	36.386734	
1503	7.5150	278.499725	1353.642944	381.322601	281.473663	1336.627075	-11.969919	226.512909	1402.461548	181.549454	350.957581	1352.033936	180.798630	293.763092	1093.455933	448.271149	359.447235	880.024475	578.509766	273.406433	1052.619263	-48.711704	400.248657	899.028870	-196.626526	210.105972	946.435791	184.068619	349.830627	991.668579	48.240150	337.413605	1003.081970	337.298065	407.917969	955.758728	79.910812	397.226868	966.344055	318.549316	222.111740	978.685425	243.966660	222.909042	974.839905	133.243607	323.113129	847.030579	385.682404	328.066589	837.057190	9.994370	346.745880	716.567688	381.556000	362.720642	631.158936	368.075836	331.232269	548.537109	358.627472	393.315216	629.814026	348.296783	318.021423	451.024353	334.755585	300.844818	431.034637	236.764816	277.426392	361.128876	367.891510	301.802765	274.079834	359.593353	278.937134	189.261169	361.186951	327.480865	276.907837	329.585754	276.773834	86.691048	360.313507	286.160583	93.465179	283.805725	219.157104	32.004021	318.056641	471.912445	86.097046	354.314087	388.168518	49.258347	407.081451	400.989532	39.280972	297.139496	338.555298	710.653320	9.077104	353.925446	629.547424	25.860216	389.456421	627.682739	39.476681	325.954956	543.864929	34.170029	308.031921	449.236633	46.917774	316.824432	429.049164	140.003830	268.509766	84.942368	21.763552	291.183350	96.183800	92.412415	218.699081	26.697830	68.081741	406.276001	43.988903	87.226967	381.453705	33.856247	-18.394377	277.406036	355.114868	17.358232	295.484222	270.378479	21.253979	274.134369	198.266006	14.780930	322.656860	270.749420	50.395332	472.511902	79.158943	36.372490	
